PathFileType	4	(X/Y/Z)	 control3min.trc
DataRate	CameraRate	NumFrames	NumMarkers	Units	OrigDataRate	OrigDataStartFrame	OrigNumFrames
200	200	9	43	m	200	376	1000
Frame#	Time	C7			LSH			RSH			MAN			RASI			LASI			HIPR			HIPL			RPSI			LPSI			COX			RTHI1			RTHI2			RTHI3			RTHI4			RLKN			RMKN			RSHA1			RSHA2			RSHA3			RSHA4			RLMAL			RMMAL			RHEEL			RMET5			RMET1			RTOE			LTHI1			LTHI2			LTHI3			LTHI4			LLKN			LMKN			LSHA1			LSHA2			LSHA3			LSHA4			LLMAL			LMMAL			LHEEL			LMET5			LMET1			LTOE			
		X1	Y1	Z1	X2	Y2	Z2	X3	Y3	Z3	X4	Y4	Z4	X5	Y5	Z5	X6	Y6	Z6	X7	Y7	Z7	X8	Y8	Z8	X9	Y9	Z9	X10	Y10	Z10	X11	Y11	Z11	X12	Y12	Z12	X13	Y13	Z13	X14	Y14	Z14	X15	Y15	Z15	X16	Y16	Z16	X17	Y17	Z17	X18	Y18	Z18	X19	Y19	Z19	X20	Y20	Z20	X21	Y21	Z21	X22	Y22	Z22	X23	Y23	Z23	X24	Y24	Z24	X25	Y25	Z25	X26	Y26	Z26	X27	Y27	Z27	X28	Y28	Z28	X29	Y29	Z29	X30	Y30	Z30	X31	Y31	Z31	X32	Y32	Z32	X33	Y33	Z33	X34	Y34	Z34	X35	Y35	Z35	X36	Y36	Z36	X37	Y37	Z37	X38	Y38	Z38	X39	Y39	Z39	X40	Y40	Z40	X41	Y41	Z41	X42	Y42	Z42	X43	Y43	Z43	
376	1.8800	-0.288594	1.312270	-0.534413	-0.219413	1.293875	-0.696156	-0.221031	1.288219	-0.374573	-0.161306	1.256028	-0.534071	-0.160895	0.819983	-0.417586	-0.178839	0.814521	-0.661602	-0.202542	0.887315	-0.389155	-0.212194	0.877177	-0.681306	-0.334395	0.865478	-0.491985	-0.339497	0.862840	-0.563230	-0.333663	0.870413	-0.526584	-0.262990	0.651936	-0.352763	-0.239777	0.596747	-0.349553	-0.178853	0.618278	-0.345854	-0.194323	0.677906	-0.348334	-0.190184	0.395239	-0.371178	-0.180744	0.386184	-0.487724	-0.300692	0.249998	-0.369707	-0.318951	0.213017	-0.381297	-0.259514	0.191992	-0.380748	-0.250646	0.230081	-0.368931	-0.340004	0.078188	-0.405138	-0.318956	0.084673	-0.483205	-0.394242	0.066646	-0.447137	-0.243619	0.030412	-0.375947	-0.201900	0.042610	-0.445248	-0.178512	0.033505	-0.441415	-0.289867	0.662868	-0.712343	-0.266864	0.607584	-0.728053	-0.205926	0.629168	-0.737274	-0.221980	0.685591	-0.724518	-0.230910	0.396192	-0.736702	-0.185418	0.383788	-0.627040	-0.348563	0.264187	-0.723618	-0.361624	0.227457	-0.717471	-0.304065	0.208710	-0.730077	-0.296775	0.249267	-0.741312	-0.376962	0.094476	-0.699528	-0.354716	0.100093	-0.623684	-0.431285	0.088648	-0.650951	-0.295061	0.033829	-0.730481	-0.242657	0.041139	-0.664176	-0.225700	0.035035	-0.670139	
377	1.8850	-0.288239	1.313256	-0.534437	-0.219289	1.294504	-0.696302	-0.220765	1.288836	-0.374528	-0.161016	1.256824	-0.534093	-0.160610	0.821475	-0.417235	-0.178308	0.815877	-0.661357	-0.202426	0.888908	-0.389176	-0.211422	0.878813	-0.681013	-0.333978	0.867068	-0.492270	-0.338786	0.864418	-0.563386	-0.333176	0.871809	-0.526833	-0.263158	0.652822	-0.353455	-0.240023	0.597597	-0.350238	-0.179085	0.619031	-0.346321	-0.194465	0.678685	-0.348767	-0.191097	0.396091	-0.372024	-0.181026	0.386864	-0.488480	-0.301369	0.250705	-0.370869	-0.319434	0.213572	-0.382221	-0.259916	0.192796	-0.381326	-0.251288	0.230962	-0.369646	-0.339825	0.078683	-0.405773	-0.318452	0.084887	-0.483786	-0.393930	0.067162	-0.447944	-0.243648	0.030527	-0.376262	-0.201634	0.042591	-0.445328	-0.178254	0.033494	-0.441320	-0.289587	0.663943	-0.711661	-0.266751	0.608695	-0.727598	-0.205846	0.630312	-0.737221	-0.221807	0.686711	-0.724323	-0.231097	0.397272	-0.736344	-0.185201	0.384810	-0.626766	-0.348421	0.265133	-0.723168	-0.361441	0.228410	-0.717049	-0.303903	0.209697	-0.729832	-0.296671	0.250308	-0.741038	-0.376517	0.095196	-0.699481	-0.354185	0.100670	-0.623650	-0.430840	0.089550	-0.650904	-0.294942	0.033880	-0.730362	-0.242510	0.041105	-0.664161	-0.225532	0.035053	-0.670143	
378	1.8900	-0.287948	1.315004	-0.534450	-0.219146	1.295998	-0.696413	-0.220503	1.290324	-0.374477	-0.160778	1.258495	-0.534115	-0.160167	0.824068	-0.417080	-0.177696	0.818337	-0.660982	-0.202137	0.891499	-0.389303	-0.210518	0.881651	-0.680615	-0.333517	0.869240	-0.492495	-0.338121	0.866557	-0.563602	-0.332566	0.873921	-0.527058	-0.263248	0.654461	-0.354208	-0.240231	0.599188	-0.350931	-0.179260	0.620486	-0.346830	-0.194512	0.680177	-0.349296	-0.192142	0.397667	-0.372865	-0.181414	0.388059	-0.489221	-0.302101	0.251950	-0.371860	-0.319962	0.214627	-0.382990	-0.260375	0.194233	-0.381748	-0.251955	0.232410	-0.370323	-0.339543	0.079583	-0.406236	-0.317900	0.085544	-0.484124	-0.393513	0.068215	-0.448436	-0.243623	0.030628	-0.376546	-0.201378	0.042550	-0.445422	-0.178040	0.033496	-0.441280	-0.289280	0.665722	-0.711071	-0.266619	0.610494	-0.727166	-0.205720	0.632106	-0.737136	-0.221573	0.688498	-0.724130	-0.231139	0.399069	-0.735840	-0.185133	0.386498	-0.626249	-0.348295	0.266623	-0.722733	-0.361236	0.229901	-0.716639	-0.303692	0.211285	-0.729550	-0.296565	0.251963	-0.740717	-0.375879	0.096363	-0.699572	-0.353495	0.101599	-0.623734	-0.430188	0.090959	-0.651028	-0.294744	0.033961	-0.730224	-0.242330	0.041054	-0.664127	-0.225342	0.035064	-0.670110	
379	1.8950	-0.287709	1.317493	-0.534453	-0.218969	1.298336	-0.696478	-0.220245	1.292654	-0.374424	-0.160568	1.261001	-0.534138	-0.159555	0.827561	-0.417100	-0.177010	0.821754	-0.660562	-0.201694	0.894859	-0.389496	-0.209569	0.885434	-0.680188	-0.332975	0.871875	-0.492659	-0.337521	0.869161	-0.563867	-0.331870	0.876644	-0.527235	-0.263263	0.656861	-0.354969	-0.240433	0.601511	-0.351626	-0.179403	0.622611	-0.347357	-0.194471	0.682360	-0.349864	-0.193314	0.399946	-0.373645	-0.181954	0.389848	-0.489935	-0.302875	0.253685	-0.372629	-0.320520	0.216153	-0.383570	-0.260878	0.196256	-0.381997	-0.252642	0.234368	-0.370946	-0.339138	0.080884	-0.406449	-0.317334	0.086626	-0.484197	-0.392968	0.069728	-0.448529	-0.243533	0.030743	-0.376780	-0.201156	0.042494	-0.445520	-0.177878	0.033498	-0.441296	-0.288993	0.668231	-0.710582	-0.266519	0.612981	-0.726747	-0.205594	0.634541	-0.736985	-0.221310	0.690942	-0.723909	-0.231127	0.401553	-0.735225	-0.185253	0.388837	-0.625540	-0.348226	0.268649	-0.722340	-0.361041	0.231894	-0.716260	-0.303468	0.213454	-0.729261	-0.296498	0.254203	-0.740374	-0.375059	0.097935	-0.699806	-0.352681	0.102890	-0.623956	-0.429342	0.092831	-0.651331	-0.294475	0.034084	-0.730076	-0.242139	0.040983	-0.664080	-0.225163	0.035070	-0.670054	
380	1.9000	-0.287515	1.320699	-0.534450	-0.218756	1.301472	-0.696490	-0.219986	1.295799	-0.374378	-0.160403	1.264274	-0.534153	-0.158770	0.831744	-0.417265	-0.176251	0.825967	-0.660185	-0.201102	0.898796	-0.389715	-0.208632	0.889916	-0.679799	-0.332251	0.875004	-0.492769	-0.336908	0.872282	-0.564135	-0.331064	0.879935	-0.527351	-0.263221	0.660012	-0.355694	-0.240669	0.604555	-0.352284	-0.179550	0.625367	-0.347883	-0.194337	0.685190	-0.350422	-0.194634	0.402892	-0.374329	-0.182719	0.392264	-0.490607	-0.303691	0.255850	-0.373168	-0.321091	0.218123	-0.383953	-0.261388	0.198789	-0.382142	-0.253321	0.236772	-0.371525	-0.338608	0.082581	-0.406390	-0.316747	0.088127	-0.484011	-0.392313	0.071717	-0.448302	-0.243397	0.030876	-0.376969	-0.200975	0.042399	-0.445637	-0.177778	0.033496	-0.441373	-0.288739	0.671499	-0.710195	-0.266461	0.616185	-0.726325	-0.205480	0.637610	-0.736733	-0.221015	0.694036	-0.723638	-0.231198	0.404682	-0.734523	-0.185634	0.391790	-0.624706	-0.348256	0.271179	-0.722011	-0.360891	0.234362	-0.715937	-0.303266	0.216168	-0.728987	-0.296505	0.256992	-0.740033	-0.374077	0.099889	-0.700202	-0.351762	0.104567	-0.624328	-0.428301	0.095133	-0.651827	-0.294134	0.034280	-0.729934	-0.241952	0.040892	-0.664013	-0.225021	0.035064	-0.669979	
381	1.9050	-0.287368	1.324564	-0.534431	-0.218509	1.305350	-0.696439	-0.219730	1.299704	-0.374348	-0.160285	1.268248	-0.534157	-0.157819	0.836438	-0.417554	-0.175408	0.830825	-0.659915	-0.200343	0.903183	-0.389939	-0.207728	0.894908	-0.679491	-0.331272	0.878715	-0.492824	-0.336162	0.876037	-0.564339	-0.330146	0.883790	-0.527380	-0.263143	0.663895	-0.356345	-0.240965	0.608297	-0.352901	-0.179724	0.628710	-0.348391	-0.194120	0.688631	-0.350941	-0.196112	0.406448	-0.374865	-0.183787	0.395335	-0.491228	-0.304559	0.258405	-0.373473	-0.321661	0.220507	-0.384145	-0.261908	0.201798	-0.382197	-0.254040	0.239685	-0.371887	-0.337960	0.084662	-0.406079	-0.316116	0.090025	-0.483621	-0.391521	0.074160	-0.447785	-0.243210	0.031040	-0.377123	-0.200857	0.042293	-0.445766	-0.177737	0.033484	-0.441488	-0.288506	0.675527	-0.709913	-0.266453	0.620132	-0.725957	-0.205350	0.641283	-0.736350	-0.220671	0.697773	-0.723307	-0.231494	0.408407	-0.733764	-0.186347	0.395327	-0.623790	-0.348399	0.274146	-0.721756	-0.360819	0.237271	-0.715697	-0.303094	0.219372	-0.728750	-0.296591	0.260270	-0.739734	-0.372944	0.102193	-0.700759	-0.350754	0.106628	-0.624850	-0.427081	0.097794	-0.652500	-0.293724	0.034515	-0.729803	-0.241787	0.040791	-0.663940	-0.224914	0.035053	-0.669891	
382	1.9100	-0.287265	1.329022	-0.534390	-0.218243	1.309902	-0.696327	-0.219482	1.304303	-0.374345	-0.160223	1.272858	-0.534144	-0.156731	0.841517	-0.417941	-0.174488	0.836198	-0.659776	-0.199404	0.907959	-0.390178	-0.206856	0.900291	-0.679283	-0.330019	0.883046	-0.492831	-0.335190	0.880492	-0.564414	-0.329095	0.888188	-0.527345	-0.263048	0.668444	-0.356894	-0.241336	0.612673	-0.353463	-0.179941	0.632587	-0.348872	-0.193842	0.692626	-0.351405	-0.197803	0.410557	-0.375244	-0.185238	0.399066	-0.491781	-0.305467	0.261346	-0.373583	-0.322213	0.223278	-0.384167	-0.262405	0.205249	-0.382109	-0.254794	0.243091	-0.371986	-0.337206	0.087143	-0.405560	-0.315397	0.092318	-0.483041	-0.390572	0.077056	-0.447024	-0.242992	0.031208	-0.377253	-0.200764	0.042186	-0.445877	-0.177747	0.033478	-0.441622	-0.288252	0.680270	-0.709742	-0.266451	0.624762	-0.725634	-0.205167	0.645525	-0.735845	-0.220244	0.702123	-0.722932	-0.232133	0.412676	-0.732961	-0.187453	0.399421	-0.622816	-0.348646	0.277473	-0.721578	-0.360790	0.240515	-0.715539	-0.302937	0.222984	-0.728570	-0.296737	0.263957	-0.739472	-0.371659	0.104828	-0.701472	-0.349656	0.109044	-0.625512	-0.425667	0.100786	-0.653327	-0.293229	0.034821	-0.729701	-0.241635	0.040685	-0.663863	-0.224857	0.035040	-0.669794	
383	1.9150	-0.287216	1.333998	-0.534332	-0.217986	1.315055	-0.696154	-0.219255	1.309514	-0.374373	-0.160224	1.278031	-0.534112	-0.155541	0.846908	-0.418406	-0.173504	0.841989	-0.659771	-0.198284	0.913089	-0.390446	-0.206006	0.906021	-0.679165	-0.328564	0.887954	-0.492774	-0.333964	0.885597	-0.564341	-0.327913	0.893100	-0.527259	-0.262950	0.673582	-0.357329	-0.241778	0.617602	-0.353956	-0.180204	0.636945	-0.349321	-0.193526	0.697112	-0.351807	-0.199746	0.415170	-0.375468	-0.187108	0.403440	-0.492258	-0.306396	0.264655	-0.373530	-0.322730	0.226416	-0.384047	-0.262800	0.209071	-0.381942	-0.255564	0.246983	-0.371820	-0.336321	0.090023	-0.404835	-0.314554	0.094993	-0.482277	-0.389426	0.080367	-0.446074	-0.242724	0.031396	-0.377316	-0.200682	0.042082	-0.445963	-0.177792	0.033460	-0.441774	-0.287938	0.685650	-0.709695	-0.266384	0.629987	-0.725338	-0.204903	0.650308	-0.735268	-0.219709	0.707032	-0.722535	-0.233178	0.417443	-0.732135	-0.189002	0.404063	-0.621782	-0.348976	0.281065	-0.721479	-0.360756	0.243982	-0.715452	-0.302758	0.226928	-0.728443	-0.296915	0.267970	-0.739247	-0.370220	0.107767	-0.702298	-0.348426	0.111760	-0.626286	-0.424048	0.104068	-0.654273	-0.292632	0.035212	-0.729619	-0.241472	0.040591	-0.663773	-0.224837	0.035054	-0.669713	
384	1.9200	-0.287225	1.339410	-0.534252	-0.217748	1.320728	-0.695913	-0.219060	1.315257	-0.374434	-0.160324	1.283686	-0.534061	-0.154289	0.852573	-0.418941	-0.172473	0.848121	-0.659878	-0.196999	0.918566	-0.390747	-0.205152	0.912089	-0.679111	-0.327016	0.893355	-0.492653	-0.332528	0.891226	-0.564145	-0.326611	0.898469	-0.527133	-0.262865	0.679231	-0.357644	-0.242281	0.623032	-0.354365	-0.180508	0.641728	-0.349736	-0.193189	0.702028	-0.352152	-0.201964	0.420234	-0.375577	-0.189422	0.408404	-0.492654	-0.307325	0.268326	-0.373359	-0.323198	0.229895	-0.383816	-0.263086	0.213234	-0.381701	-0.256316	0.251305	-0.371429	-0.335280	0.093262	-0.403960	-0.313527	0.098052	-0.481358	-0.388081	0.084101	-0.445043	-0.242396	0.031632	-0.377319	-0.200591	0.041973	-0.446015	-0.177870	0.033444	-0.441916	-0.287530	0.691574	-0.709786	-0.266221	0.635728	-0.725087	-0.204529	0.655561	-0.734649	-0.219042	0.712424	-0.722143	-0.234633	0.422649	-0.731282	-0.191036	0.409239	-0.620674	-0.349353	0.284836	-0.721439	-0.360669	0.247601	-0.715410	-0.302513	0.231136	-0.728374	-0.297092	0.272251	-0.739059	-0.368616	0.111000	-0.703212	-0.347016	0.114762	-0.627157	-0.422196	0.107618	-0.655286	-0.291908	0.035662	-0.729536	-0.241334	0.040513	-0.663707	-0.224857	0.035071	-0.669638	
